<?xml version="1.0" encoding="UTF-8"?>
<svg width="53px" height="52px" viewBox="0 0 53 52" version="1.1" xmlns="http://www.w3.org/2000/svg" xmlns:xlink="http://www.w3.org/1999/xlink">
    <title>Group</title>
    <g id="Draft" stroke="none" stroke-width="1" fill="none" fill-rule="evenodd">
        <g id="Sign-in-as-Driver" transform="translate(-165.000000, -19.000000)">
            <g id="Group-2" transform="translate(165.000000, 16.000000)">
                <g id="Group" transform="translate(0.000000, 3.500000)">
                    <path d="M42.0357457,2.13162821e-14 C42.6356617,2.06732468e-14 43.2343607,0.0539846616 43.8246,0.161300899 C49.2583635,1.14925789 52.8624018,6.35509091 51.8744448,11.7888544 L51.8744448,11.7888544 L47.5108084,35.7888544 C46.6462799,40.5437613 42.5049707,44 37.6721093,44 L37.6721093,44 L33.546,44 L27.8383728,50.0657188 C27.8210696,50.0841034 27.8034899,50.1022239 27.7856398,50.120074 L27.7312846,50.172807 C26.7258502,51.1190982 25.143664,51.0711531 24.1973728,50.0657188 L24.1973728,50.0657188 L18.488,44 L14.3636364,44 C9.62371456,44 5.54900267,40.6754154 4.578431,36.0617198 L4.52493726,35.7888544 L0.161300899,11.7888544 C0.0539846616,11.1986151 -1.70530257e-13,10.599916 -1.70530257e-13,10 C-1.7119639e-13,4.4771525 4.4771525,2.23308127e-14 10,2.13162821e-14 L10,2.13162821e-14 Z" id="Combined-Shape" fill="#F71117"></path>
                    <path d="M25.9974512,32.0001668 C19.606922,32.0001668 14.3831254,26.6925798 14.0178553,19.9999368 L16.4230276,20.0004496 C16.7845223,25.283431 20.9330134,29.4501668 25.9974512,29.4501668 C31.061889,29.4501668 35.2103801,25.283431 35.5718748,20.0004496 L37.9770471,19.9999368 C37.611777,26.6925798 32.3879804,32.0001668 25.9974512,32.0001668 Z" id="Combined-Shape" fill="#FFFFFF"></path>
                </g>
            </g>
        </g>
    </g>
</svg>